<svg width="559" height="327" viewBox="0 0 559 327" fill="none" xmlns="http://www.w3.org/2000/svg">
<rect x="1.19995" y="1" width="556" height="325" rx="7" fill="white"/>
<rect x="1.19995" y="1" width="556" height="325" rx="7" stroke="#DBDBDB" stroke-width="2"/>
<path d="M8.19995 317L549.22 8.00001M9.18038 8L550.2 317" stroke="#DBDBDB" stroke-width="2"/>
<rect width="50" height="24" transform="translate(254.2 152)" fill="white"/>
<path d="M263.056 170.455V161.455H264.301V162.516H264.407C264.481 162.379 264.588 162.222 264.727 162.043C264.866 161.864 265.059 161.707 265.306 161.574C265.554 161.438 265.88 161.369 266.287 161.369C266.815 161.369 267.287 161.503 267.701 161.77C268.116 162.037 268.441 162.422 268.677 162.925C268.916 163.428 269.035 164.033 269.035 164.74C269.035 165.447 268.917 166.054 268.681 166.56C268.446 167.062 268.122 167.45 267.71 167.723C267.298 167.993 266.828 168.128 266.299 168.128C265.902 168.128 265.576 168.061 265.324 167.928C265.074 167.794 264.878 167.638 264.735 167.459C264.593 167.28 264.484 167.121 264.407 166.982H264.331V170.455H263.056ZM264.305 164.727C264.305 165.187 264.372 165.591 264.505 165.938C264.639 166.284 264.832 166.555 265.085 166.751C265.338 166.945 265.647 167.041 266.014 167.041C266.395 167.041 266.713 166.94 266.968 166.739C267.224 166.534 267.417 166.257 267.548 165.908C267.681 165.558 267.748 165.165 267.748 164.727C267.748 164.295 267.683 163.908 267.552 163.564C267.424 163.22 267.231 162.949 266.973 162.75C266.717 162.551 266.397 162.452 266.014 162.452C265.645 162.452 265.332 162.547 265.076 162.737C264.824 162.928 264.632 163.193 264.501 163.534C264.37 163.875 264.305 164.273 264.305 164.727ZM271.737 164.114V168H270.463V159.273H271.72V162.52H271.801C271.954 162.168 272.189 161.888 272.504 161.68C272.819 161.473 273.231 161.369 273.74 161.369C274.189 161.369 274.581 161.462 274.916 161.646C275.254 161.831 275.515 162.107 275.7 162.473C275.887 162.837 275.981 163.291 275.981 163.837V168H274.707V163.99C274.707 163.51 274.583 163.138 274.336 162.874C274.089 162.607 273.745 162.473 273.305 162.473C273.004 162.473 272.734 162.537 272.495 162.665C272.26 162.793 272.074 162.98 271.937 163.227C271.804 163.472 271.737 163.767 271.737 164.114ZM280.439 168.132C279.825 168.132 279.289 167.991 278.832 167.71C278.375 167.429 278.02 167.036 277.767 166.53C277.514 166.024 277.387 165.433 277.387 164.757C277.387 164.078 277.514 163.484 277.767 162.976C278.02 162.467 278.375 162.072 278.832 161.791C279.289 161.51 279.825 161.369 280.439 161.369C281.052 161.369 281.588 161.51 282.045 161.791C282.503 162.072 282.858 162.467 283.11 162.976C283.363 163.484 283.49 164.078 283.49 164.757C283.49 165.433 283.363 166.024 283.11 166.53C282.858 167.036 282.503 167.429 282.045 167.71C281.588 167.991 281.052 168.132 280.439 168.132ZM280.443 167.062C280.841 167.062 281.17 166.957 281.431 166.747C281.693 166.537 281.886 166.257 282.011 165.908C282.139 165.558 282.203 165.173 282.203 164.753C282.203 164.335 282.139 163.952 282.011 163.602C281.886 163.25 281.693 162.967 281.431 162.754C281.17 162.541 280.841 162.435 280.443 162.435C280.042 162.435 279.71 162.541 279.446 162.754C279.184 162.967 278.99 163.25 278.862 163.602C278.737 163.952 278.674 164.335 278.674 164.753C278.674 165.173 278.737 165.558 278.862 165.908C278.99 166.257 279.184 166.537 279.446 166.747C279.71 166.957 280.042 167.062 280.443 167.062ZM287.967 161.455V162.477H284.392V161.455H287.967ZM285.351 159.886H286.625V166.078C286.625 166.325 286.662 166.511 286.736 166.636C286.81 166.759 286.905 166.842 287.021 166.888C287.141 166.93 287.27 166.952 287.409 166.952C287.511 166.952 287.601 166.945 287.678 166.93C287.754 166.916 287.814 166.905 287.857 166.896L288.087 167.949C288.013 167.977 287.908 168.006 287.771 168.034C287.635 168.065 287.465 168.082 287.26 168.085C286.925 168.091 286.612 168.031 286.322 167.906C286.033 167.781 285.798 167.588 285.619 167.327C285.44 167.065 285.351 166.737 285.351 166.342V159.886ZM292.064 168.132C291.45 168.132 290.914 167.991 290.457 167.71C290 167.429 289.645 167.036 289.392 166.53C289.139 166.024 289.012 165.433 289.012 164.757C289.012 164.078 289.139 163.484 289.392 162.976C289.645 162.467 290 162.072 290.457 161.791C290.914 161.51 291.45 161.369 292.064 161.369C292.677 161.369 293.213 161.51 293.67 161.791C294.128 162.072 294.483 162.467 294.735 162.976C294.988 163.484 295.115 164.078 295.115 164.757C295.115 165.433 294.988 166.024 294.735 166.53C294.483 167.036 294.128 167.429 293.67 167.71C293.213 167.991 292.677 168.132 292.064 168.132ZM292.068 167.062C292.466 167.062 292.795 166.957 293.056 166.747C293.318 166.537 293.511 166.257 293.636 165.908C293.764 165.558 293.828 165.173 293.828 164.753C293.828 164.335 293.764 163.952 293.636 163.602C293.511 163.25 293.318 162.967 293.056 162.754C292.795 162.541 292.466 162.435 292.068 162.435C291.667 162.435 291.335 162.541 291.071 162.754C290.809 162.967 290.615 163.25 290.487 163.602C290.362 163.952 290.299 164.335 290.299 164.753C290.299 165.173 290.362 165.558 290.487 165.908C290.615 166.257 290.809 166.537 291.071 166.747C291.335 166.957 291.667 167.062 292.068 167.062Z" fill="#949494"/>
</svg>
