<svg width="201" height="201" viewBox="0 0 201 201" fill="none" xmlns="http://www.w3.org/2000/svg">
<rect width="201" height="201" rx="20" fill="#FF1C96"/>
<path d="M128.478 74.2146C132.578 68.0507 134.627 62.2978 134.627 56.9558C134.627 51.6138 133.124 47.3676 130.118 44.2172C127.112 41.0667 123.149 39.4915 118.23 39.4915C113.311 39.4915 109.348 40.7243 106.342 43.1899C103.335 45.5184 101.832 49.2852 101.832 54.4902C101.832 59.5583 105.385 68.7356 112.491 82.0221C119.596 95.3086 124.106 103.87 126.019 107.705C131.211 118.115 133.807 128.182 133.807 137.908C133.807 150.098 129.366 160.029 120.484 167.7C111.739 175.233 101.354 179 89.3292 179C77.441 179 68.0807 175.302 61.2484 167.905C54.4161 160.371 51 151.605 51 141.606C51 123.114 62.4099 107.842 85.2298 95.788C75.9379 77.4335 71.2919 64.6263 71.2919 57.3667C71.2919 47.2306 75.323 38.6697 83.3851 31.684C91.5839 24.5613 101.559 21 113.311 21C125.199 21 134.286 24.0134 140.571 30.0403C146.857 36.0672 150 43.7378 150 53.052C150 59.2159 147.95 66.27 143.851 74.2146H128.478ZM74.7764 154.345C78.4658 158.317 82.9068 160.303 88.0994 160.303C93.4286 160.303 97.528 158.796 100.398 155.783C103.404 152.632 104.907 148.044 104.907 142.017C104.907 136.538 102.789 129.826 98.5528 121.882C98.0062 120.786 96.9814 118.8 95.4783 115.923C93.9752 112.91 92.882 110.787 92.1988 109.554C76.8944 117.498 69.2422 127.498 69.2422 139.551C69.2422 145.715 71.087 150.646 74.7764 154.345Z" fill="white"/>
</svg>
